<?xml version="1.0" encoding="UTF-8"?>
<svg version="1.1" viewBox="0 0 1921 1933" xmlns="http://www.w3.org/2000/svg">
 <g transform="translate(0 880.64)">
  <g transform="matrix(2.5203 0 0 2.5203 6556 -2341.9)" fill-rule="evenodd">
   <path d="m-2181.6 580.41s-44.076 9.3098-58.77 22.899c-11.461 10.599-22.526 37.09-26.883 48.336a315.54 315.54 0 0 0 -26.99 5.2621c-7.7429-5.545-20.823-16.092-23.142-25.546-3.3308-13.579 18.278-41.768 18.278-41.768s-48.039 23.184-57.632 40.75c-7.2507 13.277-9.3311 40.931-9.9169 53.674a315.54 315.54 0 0 0 -24.836 14.598c-9.2931-2.7727-24.268-8.2705-29.427-16.119-7.6806-11.683 3.1685-45.258 3.1685-45.258s-37.391 37.429-40.619 57.182c-2.3965 14.666 4.4575 40.711 8.1499 53.167a315.54 315.54 0 0 0 -19.317 22.552c-9.7612 0.36926-25.088-0.0552-32.342-5.6247-11.09-8.5145-10.714-45.075-10.714-45.075s-24.288 48.909-20.837 68.624c2.5613 14.63 17.549 36.933 25.118 47.478a315.54 315.54 0 0 0 -10.665 27.456c-9.0523 3.4272-23.747 7.9152-32.433 4.8649-13.192-4.6329-25.175-38.151-25.175-38.151s-7.0874 54.549 2.8376 71.929c7.311 12.803 28.516 28.543 39.198 35.962a315.54 315.54 0 0 0 -1.1943 25.656 315.54 315.54 0 0 0 0.2058 4.1181c-7.4444 6.3481-19.741 15.517-28.88 15.651-13.98 0.20531-36.332-27.259-36.332-27.259s11.133 52.291 26.133 65.542c11.253 9.9404 37.22 18.122 49.492 21.591a315.54 315.54 0 0 0 8.5181 27.423c-4.8823 8.3411-13.826 21.667-22.726 24.808-13.185 4.6532-43.286-14.036-43.286-14.036s27.626 45.453 46.044 53.288c13.993 5.9534 41.86 5.3146 54.487 4.6635a315.54 315.54 0 0 0 16.862 22.641c-1.8162 9.4471-5.8943 25.51-13.388 31.535-10.897 8.761-45.324 1.1814-45.324 1.1814s40.769 33.641 60.739 34.972c15.719 1.0481 42.93-9.3697 53.918-13.895a315.54 315.54 0 0 0 22.143 15.333c1.4217 9.3227 3.151 26.788-2.1383 35.256-7.4073 11.859-43.852 14.94-43.852 14.94s51.07 19.598 70.356 14.247c15.725-4.3634 38.963-24.325 47.107-31.63a315.54 315.54 0 0 0 24.317 6.6492c4.1595 7.8394 12.287 24.992 9.8031 35.233-3.295 13.588-35.489 28.748-35.489 28.748s53.492 1.3762 70.073-9.8335c13.882-9.3855 30.088-37.164 35.046-46.04a315.54 315.54 0 0 0 24.263 -1.3209c6.2192 5.7713 20.134 19.777 21.114 30.59 1.2624 13.925-24.374 38.728-24.374 38.728s52.72-16.119 64.405-32.368c10.091-14.032 15.923-47.026 17.333-55.799a315.54 315.54 0 0 0 20.908 -8.7025c6.7849 2.8141 26.808 11.831 31.711 22.33 5.9161 12.669-9.7126 44.387-9.7126 44.387s42.48-31.782 48.502-50.869c5.2506-16.642 0.1133-50.69-1.2893-59.147a315.54 315.54 0 0 0 16.296 -14.818c6.6562 0.3596 29.701 2.1944 38.022 10.731 9.759 10.013 5.4879 44.984 5.4879 44.984s29.635-43.757 29.056-63.763c-0.5261-18.164-17.687-50.128-20.873-55.916a315.54 315.54 0 0 0 10.761 -18.76c6.2766-1.8186 28.914-7.7825 39.649-2.4505 12.522 6.2196 19.047 42.226 19.047 42.226s14.711-52.811 7.4894-71.477c-6.6565-17.206-34.042-42.025-38.334-45.846a315.54 315.54 0 0 0 4.0144 -20.985c5.1325-3.6043 24.758-16.71 36.727-15.058 13.85 1.9119 32.043 32.45 32.043 32.45s-3.6831-53.399-16.507-68.765c-11.322-13.566-43.298-27.753-50.656-30.9a315.54 315.54 0 0 0 -3.2908 -21.779c4.0579-5.488 17.987-23.297 29.608-25.477 13.742-2.5777 40.866 20.425 40.866 20.425s-21.078-50.567-38.331-60.713c-14.998-8.8203-48.869-11.552-57.48-12.117a315.54 315.54 0 0 0 -10.32 -20.273c2.269-7.2428 9.3355-27.5 19.227-33.259 12.083-7.0352 45.173 5.6347 45.173 5.6347s-35.722-39.43-55.281-43.674c-16.58-3.5969-48.467 4.0964-57.868 6.5398a315.54 315.54 0 0 0 -17.34 -16.37c-0.2496-8.2867-0.1062-28.744 6.9989-37.211 8.987-10.711 45.59-8.5269 45.59-8.5269s-47.924-26.773-67.765-24.145c-16.173 2.1421-41.906 18.62-50.977 24.707a315.54 315.54 0 0 0 -23.235 -10.399c-3.0303-8.505-8.4302-26.284-4.5728-35.932 5.1905-12.983 39.079-23.445 39.079-23.445s-52.433-8.8953-70.463-0.20721c-14.411 6.9439-33.328 30.174-40.429 39.325a315.54 315.54 0 0 0 -10.038 -1.2187c-5.1594-5.9991-17.885-21.942-17.483-33.122 0.5025-13.973 23.56-36.214 23.56-36.214zm-38.603 98.565a284.28 284.28 0 0 1 284.28 284.28 284.28 284.28 0 0 1 -284.28 284.28 284.28 284.28 0 0 1 -284.28 -284.28 284.28 284.28 0 0 1 284.28 -284.28z" stroke="#000" stroke-width=".73672px"/>
   <path d="m-2220.2 713.78a249.48 249.48 0 0 0 -249.48 249.48 249.48 249.48 0 0 0 249.48 249.48 249.48 249.48 0 0 0 249.48 -249.48 249.48 249.48 0 0 0 -249.48 -249.48zm-0.5039 121.35a12.236 12.236 0 0 1 12.234 12.234 12.236 12.236 0 0 1 -12.234 12.236 12.236 12.236 0 0 1 -12.236 -12.236 12.236 12.236 0 0 1 12.236 -12.234zm0.5058 63.846a64.286 64.286 0 0 1 64.285 64.285 64.286 64.286 0 0 1 -64.285 64.285 64.286 64.286 0 0 1 -64.287 -64.285 64.286 64.286 0 0 1 64.287 -64.285zm0.5039 167.95a12.236 12.236 0 0 1 12.236 12.236 12.236 12.236 0 0 1 -12.236 12.234 12.236 12.236 0 0 1 -12.236 -12.234 12.236 12.236 0 0 1 12.236 -12.236z"/>
  </g>
 </g>
</svg>
